<svg width="30" height="23" viewBox="0 0 30 23" fill="none" xmlns="http://www.w3.org/2000/svg">
<line x1="0.965926" y1="0.741181" x2="5.03574" y2="15.9299" stroke="black" stroke-width="2"/>
<line y1="-1" x2="15.7221" y2="-1" transform="matrix(-0.499771 0.866157 -0.865893 -0.500229 28.1483 1.78546)" stroke="black" stroke-width="2"/>
<line x1="3.33871" y1="16.0824" x2="21.6095" y2="16.0824" stroke="black" stroke-width="2"/>
<line x1="2.03366" y1="6.94147" x2="25.5247" y2="6.94147" stroke="black" stroke-width="2"/>
<line x1="3.33871" y1="10.859" x2="24.2196" y2="10.859" stroke="black" stroke-width="2"/>
<path d="M19.6519 22C21.2859 22 22.6095 20.6747 22.6095 19.0412C22.6095 17.4077 21.2859 16.0824 19.6519 16.0824C18.0179 16.0824 16.6943 17.4077 16.6943 19.0412C16.6943 20.6747 18.0179 22 19.6519 22Z" fill="white" stroke="black" stroke-width="2"/>
<path d="M6.60135 22C8.23535 22 9.55893 20.6747 9.55893 19.0412C9.55893 17.4077 8.23535 16.0824 6.60135 16.0824C4.96735 16.0824 3.64377 17.4077 3.64377 19.0412C3.64377 20.6747 4.96735 22 6.60135 22Z" fill="white" stroke="black" stroke-width="2"/>
</svg>
